<?xml version="1.0" encoding="UTF-8" standalone="no"?>
<!-- Created with Inkscape (http://www.inkscape.org/) -->

<svg
   width="1200"
   height="630"
   viewBox="0 0 317.5 166.6875"
   version="1.1"
   id="svg1"
   inkscape:version="1.4 (86a8ad7, 2024-10-11)"
   sodipodi:docname="renter-readiness-thumbnail.svg"
   xmlns:inkscape="http://www.inkscape.org/namespaces/inkscape"
   xmlns:sodipodi="http://sodipodi.sourceforge.net/DTD/sodipodi-0.dtd"
   xmlns:xlink="http://www.w3.org/1999/xlink"
   xmlns="http://www.w3.org/2000/svg"
   xmlns:svg="http://www.w3.org/2000/svg">
  <sodipodi:namedview
     id="namedview1"
     pagecolor="#ffffff"
     bordercolor="#999999"
     borderopacity="1"
     inkscape:showpageshadow="2"
     inkscape:pageopacity="0"
     inkscape:pagecheckerboard="0"
     inkscape:deskcolor="#d1d1d1"
     inkscape:document-units="mm"
     inkscape:zoom="0.31536195"
     inkscape:cx="559.67438"
     inkscape:cy="529.55026"
     inkscape:window-width="1600"
     inkscape:window-height="930"
     inkscape:window-x="-6"
     inkscape:window-y="-6"
     inkscape:window-maximized="1"
     inkscape:current-layer="layer1" />
  <defs
     id="defs1">
    <linearGradient
       id="linearGradient15"
       inkscape:collect="always">
      <stop
         style="stop-color:#f46e6c;stop-opacity:1;"
         offset="0"
         id="stop16" />
      <stop
         style="stop-color:#d39ac9;stop-opacity:1;"
         offset="1"
         id="stop17" />
    </linearGradient>
    <meshgradient
       inkscape:collect="always"
       id="meshgradient2"
       gradientUnits="userSpaceOnUse"
       x="0"
       y="2.220446e-16"
       gradientTransform="translate(0,-166.6875)">
      <meshrow
         id="meshrow2">
        <meshpatch
           id="meshpatch2">
          <stop
             path="c 105.833,0  211.667,0  317.5,0"
             style="stop-color:#ffffff;stop-opacity:1"
             id="stop3" />
          <stop
             path="c 0,55.5625  0,111.125  0,166.688"
             style="stop-color:#fdddd4;stop-opacity:1"
             id="stop4" />
          <stop
             path="c -105.833,0  -211.667,0  -317.5,0"
             style="stop-color:#ffffff;stop-opacity:1"
             id="stop5" />
          <stop
             path="c 0,-55.5625  0,-111.125  0,-166.688"
             style="stop-color:#fdddd4;stop-opacity:1"
             id="stop6" />
        </meshpatch>
      </meshrow>
    </meshgradient>
    <linearGradient
       inkscape:collect="always"
       xlink:href="#linearGradient15"
       id="linearGradient17"
       x1="57.441799"
       y1="73.155792"
       x2="119.84116"
       y2="73.155792"
       gradientUnits="userSpaceOnUse" />
  </defs>
  <g
     inkscape:label="Layer 1"
     inkscape:groupmode="layer"
     id="layer1">
    <rect
       style="fill:url(#meshgradient2);fill-opacity:1;stroke-width:1.00012;stroke-linecap:round;paint-order:markers stroke fill"
       id="rect1"
       width="317.5"
       height="166.6875"
       x="0"
       y="-166.6875"
       transform="scale(1,-1)" />
    <g
       id="g17"
       transform="translate(0,-4.0810622)">
      <g
         id="text1"
         style="font-weight:bold;font-size:25.4px;line-height:1;font-family:Outfit;-inkscape-font-specification:'Outfit Bold';text-align:center;letter-spacing:-0.529167px;text-anchor:middle;fill:#e41e2b;stroke-width:1.00012;stroke-linecap:round;paint-order:markers stroke fill"
         aria-label="Are you ready&#10;to rent?"
         transform="matrix(1.3410184,0,0,1.3410184,-10.021683,-12.68181)">
        <path
           style="font-weight:900;font-family:'Playfair Display';-inkscape-font-specification:'Playfair Display Heavy';text-align:start;text-anchor:start;fill:#000000"
           d="m 40.030112,39.06765 6.1468,15.8496 q 0.3556,0.8636 0.762,1.2446 0.4064,0.3556 0.7366,0.381 v 0.508 q -0.9144,-0.0508 -2.1336,-0.0508 -1.2192,-0.0254 -2.4892,-0.0254 -1.2954,0 -2.4384,0.0254 -1.143,0 -1.8288,0.0508 v -0.508 q 1.2954,-0.0508 1.6256,-0.4318 0.3556,-0.4064 -0.1524,-1.7018 l -4.064,-11.2522 0.508,-0.889 -3.5052,9.1186 q -0.635,1.651 -0.7874,2.667 -0.127,0.9906 0.127,1.524 0.254,0.5334 0.8128,0.7366 0.5588,0.2032 1.3208,0.2286 v 0.508 q -0.9398,-0.0508 -1.7018,-0.0508 -0.7366,-0.0254 -1.6256,-0.0254 -0.4826,0 -1.0414,0.0254 -0.5334,0 -0.9144,0.0508 v -0.508 q 0.5842,-0.1016 1.143,-0.7366 0.5842,-0.6604 1.1938,-2.2352 l 5.6388,-14.5034 q 0.6096,0.0508 1.3208,0.0508 0.7366,0 1.3462,-0.0508 z m 0.889,10.668 v 0.508 h -7.5692 l 0.254,-0.508 z m 15.853819,-6.223 q 0.914399,0 1.422399,0.4064 0.508,0.381 0.7112,0.9906 0.2032,0.5842 0.2032,1.1684 0,1.143 -0.6604,1.8288 -0.635,0.6604 -1.676399,0.6604 -1.1176,0 -1.7018,-0.508 -0.5588,-0.508 -0.5588,-1.3208 0,-0.8636 0.3556,-1.4224 0.381,-0.5588 0.9398,-0.9398 -0.4572,0 -0.8128,0.1778 -0.3048,0.127 -0.5842,0.3556 -0.2794,0.2286 -0.4826,0.5334 -0.2032,0.2794 -0.3302,0.635 -0.1016,0.3556 -0.1016,0.7366 v 7.62 q 0,1.2192 0.508,1.651 0.508,0.4318 1.6764,0.4318 v 0.5334 q -0.5842,-0.0254 -1.7526,-0.0508 -1.143,-0.0508 -2.3622,-0.0508 -1.143,0 -2.3114,0.0508 -1.1684,0.0254 -1.7526,0.0508 v -0.5334 q 0.7874,0 1.0922,-0.381 0.3302,-0.381 0.3302,-1.4478 v -8.0518 q 0,-1.143 -0.3048,-1.6764 -0.3048,-0.5588 -1.1176,-0.5588 v -0.5334 q 0.8128,0.0762 1.5748,0.0762 1.27,0 2.3622,-0.0762 1.1176,-0.1016 2.0574,-0.2794 v 1.8288 q 0.3302,-0.6604 0.8128,-1.0668 0.4826,-0.4318 1.0922,-0.635 0.635,-0.2032 1.3716,-0.2032 z m 8.945049,0 q 2.2352,0 3.5052,1.3208 1.2954,1.2954 1.2954,4.3688 h -7.9502 l -0.0508,-0.4826 h 4.2926 q 0.0254,-1.2446 -0.1016,-2.286 -0.127,-1.0668 -0.4064,-1.7018 -0.2794,-0.635 -0.762,-0.635 -0.6858,0 -1.1176,1.0922 -0.4318,1.0668 -0.5588,3.683 l 0.1016,0.2032 q -0.0254,0.254 -0.0254,0.508 0,0.254 0,0.5334 0,1.778 0.4318,2.7686 0.4572,0.9906 1.1176,1.3716 0.6858,0.381 1.3716,0.381 0.3556,0 0.8382,-0.1016 0.508,-0.1016 1.0922,-0.4572 0.5842,-0.381 1.143,-1.143 l 0.4318,0.1524 q -0.3048,1.016 -0.9906,2.032 -0.6604,0.9906 -1.7272,1.651 -1.0668,0.635 -2.5908,0.635 -1.6256,0 -2.9718,-0.6604 -1.3208,-0.6604 -2.108199,-2.1844 -0.7874,-1.524 -0.7874,-4.0894 0,-2.4384 0.8636,-3.9624 0.863599,-1.5494 2.336799,-2.2606 1.4986,-0.7366 3.3274,-0.7366 z m 22.614508,0.3556 v 0.5334 q -0.4826,0.1778 -0.9398,0.7112 -0.4318,0.508 -0.8636,1.7526 l -3.175,9.4488 -1.2954,2.9718 -6.096,-13.462 q -0.4318,-0.9652 -0.8128,-1.1938 -0.381,-0.2286 -0.6604,-0.2286 v -0.5334 q 1.016,0.0762 2.1082,0.127 1.0922,0.0254 2.032,0.0254 1.1938,0 2.0574,-0.0508 0.8636,-0.0508 1.6256,-0.1016 v 0.5334 q -0.4572,0 -0.8636,0.0508 -0.4064,0.0508 -0.5842,0.254 -0.1778,0.1778 0.0254,0.6604 l 3.2512,7.7216 -0.2794,0.2032 1.2192,-3.7338 q 0.5842,-1.7272 0.4826,-2.8448 -0.0762,-1.1176 -0.5842,-1.6764 -0.508,-0.5842 -1.27,-0.635 v -0.5334 q 0.3556,0.0254 0.8636,0.0508 0.508,0.0254 0.9906,0.0508 0.508,0 0.8128,0 0.4572,0 1.0668,-0.0254 0.6096,-0.0254 0.889,-0.0762 z m -4.9784,12.446 -1.0668,3.0734 q -0.2286,0.635 -0.508,1.0922 -0.254,0.4572 -0.6096,0.7366 -0.3302,0.254 -0.889,0.4318 -0.5334,0.1778 -1.4732,0.1778 -0.7112,0 -1.524,-0.2286 -0.7874,-0.2286 -1.3716,-0.762 -0.5588,-0.508 -0.5588,-1.397 0,-0.889 0.6858,-1.4224 0.6858,-0.5334 1.8034,-0.5334 1.0414,0 1.651,0.4572 0.635,0.4826 0.635,1.4224 0,0.5588 -0.4064,1.1176 -0.381,0.5588 -1.2446,0.8382 0.2032,0.0254 0.4572,0.0254 0.254,0.0254 0.4064,0.0254 0.8128,0 1.4478,-0.508 0.635,-0.4826 0.9652,-1.524 l 0.889,-2.7686 z m 11.383389,-12.8016 q 1.9812,0 3.429,0.6858 1.4732,0.6604 2.286003,2.1844 0.8128,1.524 0.8128,4.0894 0,2.5654 -0.8128,4.0894 -0.812803,1.524 -2.286003,2.1844 -1.4478,0.6604 -3.429,0.6604 -1.9558,0 -3.429,-0.6604 -1.4732,-0.6604 -2.286,-2.1844 -0.8128,-1.524 -0.8128,-4.0894 0,-2.5654 0.8128,-4.0894 0.8128,-1.524 2.286,-2.1844 1.4732,-0.6858 3.429,-0.6858 z m 0,0.508 q -0.762,0 -1.27,1.524 -0.508,1.524 -0.508,4.9276 0,3.4036 0.508,4.9276 0.508,1.4986 1.27,1.4986 0.762,0 1.27,-1.4986 0.508,-1.524 0.508,-4.9276 0,-3.4036 -0.508,-4.9276 -0.508,-1.524 -1.27,-1.524 z m 20.705243,-0.4318 v 10.6934 q 0,1.143 0.3048,1.7018 0.3302,0.5334 1.1176,0.5334 v 0.5334 q -0.7874,-0.0762 -1.5748,-0.0762 -1.27,0 -2.3622,0.0762 -1.0922,0.0762 -2.0574,0.2794 v -1.8288 q -0.6096,1.016 -1.651,1.4732 -1.016,0.4318 -2.3876,0.4318 -1.1684,0 -1.8542,-0.3048 -0.6604,-0.2794 -1.016,-0.7112 -0.381,-0.4572 -0.5588,-1.2192 -0.1778,-0.762 -0.1778,-2.0574 v -6.477 q 0,-1.143 -0.3048,-1.6764 -0.3048,-0.5588 -1.1176,-0.5588 v -0.5334 q 0.8128,0.0762 1.5748,0.0762 1.27,0 2.3622,-0.0762 1.1176,-0.1016 2.0574,-0.2794 v 10.8966 q 0,0.5334 0.127,0.889 0.127,0.3556 0.4064,0.5334 0.2794,0.1778 0.7112,0.1778 0.4826,0 0.889,-0.2286 0.4064,-0.2286 0.6604,-0.635 0.2794,-0.4318 0.2794,-0.9652 v -7.62 q 0,-1.143 -0.3048,-1.6764 -0.3048,-0.5588 -1.1176,-0.5588 v -0.5334 q 0.8128,0.0762 1.5748,0.0762 1.27,0 2.3622,-0.0762 1.1176,-0.1016 2.0574,-0.2794 z m 16.28984,-0.0762 q 0.9144,0 1.4224,0.4064 0.508,0.381 0.7112,0.9906 0.2032,0.5842 0.2032,1.1684 0,1.143 -0.6604,1.8288 -0.635,0.6604 -1.6764,0.6604 -1.1176,0 -1.7018,-0.508 -0.5588,-0.508 -0.5588,-1.3208 0,-0.8636 0.3556,-1.4224 0.381,-0.5588 0.9398,-0.9398 -0.4572,0 -0.8128,0.1778 -0.3048,0.127 -0.5842,0.3556 -0.2794,0.2286 -0.4826,0.5334 -0.2032,0.2794 -0.3302,0.635 -0.1016,0.3556 -0.1016,0.7366 v 7.62 q 0,1.2192 0.508,1.651 0.508,0.4318 1.6764,0.4318 v 0.5334 q -0.5842,-0.0254 -1.7526,-0.0508 -1.143,-0.0508 -2.3622,-0.0508 -1.143,0 -2.3114,0.0508 -1.1684,0.0254 -1.7526,0.0508 v -0.5334 q 0.7874,0 1.0922,-0.381 0.3302,-0.381 0.3302,-1.4478 v -8.0518 q 0,-1.143 -0.3048,-1.6764 -0.3048,-0.5588 -1.1176,-0.5588 v -0.5334 q 0.8128,0.0762 1.5748,0.0762 1.27,0 2.3622,-0.0762 1.1176,-0.1016 2.0574,-0.2794 v 1.8288 q 0.3302,-0.6604 0.8128,-1.0668 0.4826,-0.4318 1.0922,-0.635 0.635,-0.2032 1.3716,-0.2032 z m 8.94506,0 q 2.2352,0 3.5052,1.3208 1.2954,1.2954 1.2954,4.3688 h -7.9502 l -0.0508,-0.4826 h 4.2926 q 0.0254,-1.2446 -0.1016,-2.286 -0.127,-1.0668 -0.4064,-1.7018 -0.2794,-0.635 -0.762,-0.635 -0.6858,0 -1.1176,1.0922 -0.4318,1.0668 -0.5588,3.683 l 0.1016,0.2032 q -0.0254,0.254 -0.0254,0.508 0,0.254 0,0.5334 0,1.778 0.4318,2.7686 0.4572,0.9906 1.1176,1.3716 0.6858,0.381 1.3716,0.381 0.3556,0 0.8382,-0.1016 0.508,-0.1016 1.0922,-0.4572 0.5842,-0.381 1.143,-1.143 l 0.4318,0.1524 q -0.3048,1.016 -0.9906,2.032 -0.6604,0.9906 -1.7272,1.651 -1.0668,0.635 -2.5908,0.635 -1.6256,0 -2.9718,-0.6604 -1.3208,-0.6604 -2.1082,-2.1844 -0.7874,-1.524 -0.7874,-4.0894 0,-2.4384 0.8636,-3.9624 0.8636,-1.5494 2.3368,-2.2606 1.4986,-0.7366 3.3274,-0.7366 z m 8.89423,13.716 q -1.1938,0 -1.9558,-0.4572 -0.762,-0.4572 -1.1176,-1.1938 -0.3302,-0.7366 -0.3302,-1.5494 0,-1.0668 0.4826,-1.7272 0.4826,-0.6858 1.2446,-1.0922 0.7874,-0.4318 1.651,-0.7112 0.8636,-0.2794 1.6256,-0.5334 0.7874,-0.2794 1.27,-0.635 0.4826,-0.381 0.4826,-0.9652 v -2.2606 q 0,-0.4064 -0.1524,-0.889 -0.127,-0.4826 -0.508,-0.8382 -0.381,-0.3556 -1.143,-0.3556 -0.4064,0 -0.7874,0.127 -0.3556,0.1016 -0.635,0.3048 0.889,0.3302 1.2954,0.9398 0.4064,0.5842 0.4064,1.2954 0,1.016 -0.7112,1.6002 -0.7112,0.5842 -1.6764,0.5842 -1.016,0 -1.5748,-0.635 -0.5588,-0.635 -0.5588,-1.5748 0,-0.7874 0.381,-1.3208 0.4064,-0.5588 1.1938,-1.016 0.762,-0.4318 1.8288,-0.6096 1.0668,-0.2032 2.2352,-0.2032 1.2446,0 2.3114,0.254 1.0668,0.2286 1.8288,1.016 0.5334,0.5588 0.6858,1.397 0.1524,0.8382 0.1524,2.159 v 6.8072 q 0,0.635 0.0762,0.8636 0.1016,0.2286 0.3302,0.2286 0.2032,0 0.381,-0.127 0.2032,-0.127 0.381,-0.254 l 0.254,0.4318 q -0.5588,0.4826 -1.397,0.7112 -0.8128,0.2286 -1.7272,0.2286 -1.0922,0 -1.7018,-0.254 -0.5842,-0.2794 -0.8382,-0.7112 -0.2286,-0.4572 -0.254,-0.9652 -0.5334,0.8382 -1.3462,1.397 -0.7874,0.5334 -2.0828,0.5334 z m 2.413,-2.032 q 0.2794,0 0.4826,-0.0762 0.2286,-0.1016 0.4572,-0.3556 v -5.3594 q -0.1778,0.3302 -0.4826,0.6604 -0.2794,0.3048 -0.5842,0.635 -0.3048,0.3302 -0.5842,0.7112 -0.254,0.381 -0.4318,0.889 -0.1524,0.4826 -0.1524,1.143 0,0.9652 0.3556,1.3716 0.381,0.381 0.9398,0.381 z m 20.22264,-18.0086 v 17.0688 q 0,1.143 0.3048,1.7018 0.3302,0.5334 1.1176,0.5334 v 0.5334 q -0.7874,-0.0762 -1.5748,-0.0762 -1.27,0 -2.3622,0.0762 -1.0922,0.0762 -2.0574,0.2794 v -17.0688 q 0,-1.143 -0.3048,-1.6764 -0.3048,-0.5588 -1.1176,-0.5588 v -0.5334 q 0.8128,0.0762 1.5748,0.0762 1.27,0 2.3622,-0.0762 1.1176,-0.1016 2.0574,-0.2794 z m -7.2136,6.3246 q 1.1176,0 1.8796,0.2794 0.762,0.254 1.3462,0.8382 l -0.2794,0.2794 q -0.3302,-0.2794 -0.7366,-0.4064 -0.4064,-0.1524 -0.762,-0.1524 -1.1684,0 -1.7526,1.4986 -0.5842,1.4986 -0.5842,4.5974 0,2.2352 0.2286,3.4798 0.2286,1.2192 0.6096,1.7018 0.4064,0.4572 0.8636,0.4572 0.7112,0 1.27,-0.508 0.5588,-0.5334 0.5588,-1.3208 v 1.2446 q -0.508,0.9652 -1.2446,1.4478 -0.7366,0.4572 -1.8542,0.4572 -1.4478,0 -2.6416,-0.7112 -1.1684,-0.7366 -1.8542,-2.286 -0.6858,-1.5494 -0.6858,-4.0386 0,-2.3114 0.6858,-3.81 0.7112,-1.524 1.9812,-2.286 1.27,-0.762 2.9718,-0.762 z m 21.84822,0.3556 v 0.5334 q -0.4826,0.1778 -0.9398,0.7112 -0.4318,0.508 -0.8636,1.7526 l -3.175,9.4488 -1.2954,2.9718 -6.096,-13.462 q -0.4318,-0.9652 -0.8128,-1.1938 -0.381,-0.2286 -0.6604,-0.2286 v -0.5334 q 1.016,0.0762 2.1082,0.127 1.0922,0.0254 2.032,0.0254 1.1938,0 2.0574,-0.0508 0.8636,-0.0508 1.6256,-0.1016 v 0.5334 q -0.4572,0 -0.8636,0.0508 -0.4064,0.0508 -0.5842,0.254 -0.1778,0.1778 0.0254,0.6604 l 3.2512,7.7216 -0.2794,0.2032 1.2192,-3.7338 q 0.5842,-1.7272 0.4826,-2.8448 -0.0762,-1.1176 -0.5842,-1.6764 -0.508,-0.5842 -1.27,-0.635 v -0.5334 q 0.3556,0.0254 0.8636,0.0508 0.508,0.0254 0.9906,0.0508 0.508,0 0.8128,0 0.4572,0 1.0668,-0.0254 0.6096,-0.0254 0.889,-0.0762 z m -4.9784,12.446 -1.0668,3.0734 q -0.2286,0.635 -0.508,1.0922 -0.254,0.4572 -0.6096,0.7366 -0.3302,0.254 -0.889,0.4318 -0.5334,0.1778 -1.4732,0.1778 -0.7112,0 -1.524,-0.2286 -0.7874,-0.2286 -1.3716,-0.762 -0.5588,-0.508 -0.5588,-1.397 0,-0.889 0.6858,-1.4224 0.6858,-0.5334 1.8034,-0.5334 1.0414,0 1.651,0.4572 0.635,0.4826 0.635,1.4224 0,0.5588 -0.4064,1.1176 -0.381,0.5588 -1.2446,0.8382 0.2032,0.0254 0.4572,0.0254 0.254,0.0254 0.4064,0.0254 0.8128,0 1.4478,-0.508 0.635,-0.4826 0.9652,-1.524 l 0.889,-2.7686 z"
           id="path10" />
        <path
           style="font-weight:900;font-family:'Playfair Display';-inkscape-font-specification:'Playfair Display Heavy';text-align:start;text-anchor:start;fill:#000000"
           d="m 36.321712,65.611974 v 4.1148 h 2.4892 v 0.508 h -2.4892 v 10.541 q 0,0.4826 0.1778,0.7112 0.1778,0.2032 0.5842,0.2032 0.2794,0 0.6604,-0.1524 0.381,-0.1778 0.7112,-0.5842 l 0.381,0.3048 q -0.5334,0.9144 -1.4224,1.4732 -0.8636,0.5334 -2.1844,0.5334 -0.8382,0 -1.524,-0.2286 -0.6604,-0.2032 -1.0922,-0.635 -0.5588,-0.5588 -0.7112,-1.3716 -0.1524,-0.8382 -0.1524,-2.159 v -8.636 h -1.9304 v -0.508 h 1.9304 v -2.9972 q 1.3462,0 2.4384,-0.254 1.1176,-0.2794 2.1336,-0.8636 z m 9.122829,3.7592 q 1.9812,0 3.429,0.6858 1.4732,0.6604 2.286,2.1844 0.8128,1.524 0.8128,4.0894 0,2.5654 -0.8128,4.0894 -0.8128,1.524 -2.286,2.1844 -1.4478,0.6604 -3.429,0.6604 -1.9558,0 -3.429,-0.6604 -1.4732,-0.6604 -2.286,-2.1844 -0.8128,-1.524 -0.8128,-4.0894 0,-2.5654 0.8128,-4.0894 0.8128,-1.524 2.286,-2.1844 1.4732,-0.6858 3.429,-0.6858 z m 0,0.508 q -0.762,0 -1.27,1.524 -0.508,1.524 -0.508,4.9276 0,3.4036 0.508,4.9276 0.508,1.4986 1.27,1.4986 0.762,0 1.27,-1.4986 0.508,-1.524 0.508,-4.9276 0,-3.4036 -0.508,-4.9276 -0.508,-1.524 -1.27,-1.524 z"
           id="path11" />
        <path
           style="font-style:italic;font-weight:900;font-family:'Playfair Display';-inkscape-font-specification:'Playfair Display Heavy';text-align:start;text-anchor:start;fill:url(#linearGradient17)"
           d="m 61.937602,82.909374 h -4.4958 l 3.0988,-11.0236 q 0.1524,-0.5842 0.1016,-0.8128 -0.0508,-0.254 -0.3302,-0.254 -0.381,0 -0.7112,0.3556 -0.3302,0.3302 -0.6858,1.2446 l -0.5842,1.5494 h -0.4826 l 0.7112,-1.9812 q 0.3556,-0.9652 0.889,-1.524 0.5588,-0.5842 1.2954,-0.8382 0.7366,-0.254 1.6002,-0.254 0.8636,0 1.3716,0.3302 0.508,0.3048 0.7366,0.8382 0.2286,0.5334 0.2286,1.1684 0.0254,0.6096 -0.127,1.2192 z m 6.477,-13.0302 q -0.4826,0 -1.0414,0.1524 -0.5334,0.1524 -1.143,0.7874 -0.5842,0.6096 -1.27,1.9812 -0.6604,1.3716 -1.4224,3.81 -0.762,2.4384 -1.6002,6.223 l 0.5334,-3.556 q 0.762,-2.9718 1.397,-4.8768 0.635,-1.9304 1.27,-3.0226 0.635,-1.1176 1.397,-1.5494 0.762,-0.4572 1.778,-0.4572 1.1938,0 1.8288,0.7112 0.635,0.7112 0.635,1.7526 0,0.8382 -0.381,1.5748 -0.3556,0.7112 -1.016,1.1684 -0.635,0.4318 -1.4732,0.4318 -0.9398,0 -1.4224,-0.4826 -0.4826,-0.4826 -0.4826,-1.4224 0,-0.762 0.381,-1.4224 0.381,-0.6604 1.016,-1.1176 0.635,-0.4826 1.3716,-0.6096 -0.0762,-0.0254 -0.1778,-0.0508 -0.0762,-0.0254 -0.1778,-0.0254 z m 4.957242,7.6962 q 0.8128,-0.381 1.6002,-0.9144 0.7874,-0.5334 1.4478,-1.1684 1.016,-0.9906 1.651,-2.2606 0.6604,-1.27 0.6604,-2.7432 0,-0.3556 -0.1016,-0.4826 -0.1016,-0.1524 -0.3048,-0.1524 -0.508,0 -1.1176,0.5842 -0.5842,0.5588 -1.1684,1.524 -0.5842,0.9398 -1.0668,2.1336 -0.4572,1.1938 -0.762,2.4638 -0.2794,1.2446 -0.2794,2.413 0,1.4732 0.5842,1.9812 0.5842,0.4826 1.524,0.4826 0.508,0 1.524,-0.381 1.016,-0.381 2.032,-1.397 l 0.4064,0.2032 q -0.5588,0.8382 -1.4732,1.6256 -0.9144,0.7874 -2.159,1.2954 -1.2446,0.4826 -2.794,0.4826 -1.1938,0 -2.2098,-0.4064 -0.9906,-0.4064 -1.6002,-1.1938 -0.5842,-0.8128 -0.5842,-1.9812 0,-1.4986 0.4572,-2.9718 0.4826,-1.4732 1.3462,-2.794 0.8636,-1.3208 2.0574,-2.3368 1.2192,-1.0414 2.6924,-1.6256 1.4732,-0.5842 3.1496,-0.5842 1.3462,0 2.2352,0.5588 0.9144,0.5334 0.9144,1.6764 0,0.9652 -0.508,1.8288 -0.508,0.8382 -1.397,1.5494 -0.889,0.6858 -2.0066,1.2446 -1.1176,0.5588 -2.3622,0.9652 -1.2192,0.4064 -2.413,0.635 z m 12.526437,5.334 h -4.4958 l 3.0988,-11.0236 q 0.127,-0.4064 0.1524,-0.635 0.0254,-0.2286 -0.0762,-0.3302 -0.0762,-0.1016 -0.3048,-0.1016 -0.381,0 -0.7112,0.3556 -0.3302,0.3302 -0.6858,1.2446 l -0.5842,1.5494 h -0.4826 l 0.7112,-1.9812 q 0.4826,-1.3462 1.3208,-1.9812 0.8382,-0.635 2.159,-0.635 0.9906,0 1.5748,0.3302 0.584199,0.3048 0.838199,0.8382 0.254,0.5334 0.254,1.1684 0,0.6096 -0.1524,1.2192 z m 0.5842,-3.6322 q 1.0414,-3.0988 1.904999,-5.0292 0.889,-1.9558 1.7018,-3.0226 0.8382,-1.0668 1.7018,-1.4478 0.889,-0.4064 1.905,-0.4064 1.27,0 1.8542,0.508 0.5842,0.508 0.6096,1.397 0.0508,0.8636 -0.3048,1.9304 l -2.5146,7.5438 q -0.254,0.7112 -0.0762,0.889 0.2032,0.1778 0.381,0.1778 0.2286,0 0.5842,-0.254 0.3556,-0.2794 0.762,-1.3462 l 0.5334,-1.4224 h 0.4826 l -0.635,1.8542 q -0.3556,1.0668 -0.9652,1.6256 -0.5842,0.5588 -1.2954,0.762 -0.6858,0.2286 -1.3716,0.2286 -0.7874,0 -1.3716,-0.2286 -0.5842,-0.2286 -0.9144,-0.6858 -0.381,-0.5334 -0.4318,-1.3208 -0.0254,-0.8128 0.4064,-2.1336 l 2.1844,-6.5786 q 0.1524,-0.4572 0.1778,-0.762 0.0508,-0.3048 0,-0.4572 -0.0508,-0.1524 -0.2286,-0.1524 -0.4064,0 -0.9652,0.6858 -0.5588,0.6858 -1.1938,1.8796 -0.6096,1.1938 -1.2446,2.7432 -0.634999,1.524 -1.219199,3.2258 -0.5842,1.6764 -1.016,3.3528 z m 20.705219,-9.5504 -0.0762,0.508 h -9.423395 l 0.127,-0.508 z m -5.7658,11.0236 q -0.1524,0.5334 -0.0254,0.8128 0.1524,0.254 0.4826,0.254 0.508,0 1.016,-0.5588 0.508,-0.5588 0.8128,-1.3716 l 0.4064,-1.0922 h 0.4826 l -0.4826,1.397 q -0.4826,1.4478 -1.524,2.2606 -1.0414,0.8128 -2.5146,0.8128 -1.269995,0 -1.955795,-0.5842 -0.6858,-0.6096 -0.8128,-1.6002 -0.127,-0.9906 0.2032,-2.1844 l 3.708395,-12.9032 q 1.397,-0.0254 2.4892,-0.1016 1.0922,-0.0762 2.1336,-0.254 z m 11.28183,-17.0688 q -0.2032,0 -0.5334,0.0508 -0.3302,0.0254 -0.6858,0.127 -0.3556,0.0762 -0.6604,0.2794 0.635,-0.0508 1.1938,0.2032 0.5842,0.254 0.9398,0.7112 0.381,0.4572 0.381,1.0668 0,0.9144 -0.6858,1.6002 -0.6604,0.6604 -1.6764,0.6604 -0.8636,0 -1.6002,-0.5588 -0.7112,-0.5588 -0.7112,-1.6002 0,-0.9652 0.5334,-1.5748 0.5588,-0.635 1.397,-0.9652 0.8636,-0.3556 1.8288,-0.4826 0.9906,-0.1524 1.8288,-0.1524 1.4224,0 2.6924,0.3556 1.27,0.3556 2.0828,1.0668 0.8128,0.7112 0.8128,1.8288 0,0.7366 -0.508,1.4732 -0.508,0.7366 -1.5748,1.6256 -1.0414,0.889 -2.6924,2.0828 -1.7018,1.2192 -2.5908,1.9812 -0.8636,0.762 -1.1684,1.3462 -0.3048,0.5842 -0.3048,1.2446 0,0.635 0.4064,1.0922 0.4318,0.4572 1.27,0.4572 0.4064,0 0.8128,-0.0762 0.4318,-0.1016 0.8128,-0.2794 -0.5588,-0.2032 -1.0668,-0.6858 -0.508,-0.508 -0.508,-1.3716 0,-0.889 0.5842,-1.4732 0.6096,-0.5842 1.5748,-0.5842 0.7366,0 1.2954,0.5334 0.5842,0.508 0.5842,1.27 0,0.9144 -0.508,1.5494 -0.508,0.6096 -1.2954,0.9906 -0.7874,0.3556 -1.6764,0.5334 -0.8636,0.1524 -1.6256,0.1524 -1.2192,0 -2.2606,-0.3302 -1.016,-0.3302 -1.6256,-1.016 -0.6096,-0.6858 -0.6096,-1.7526 0,-0.9652 0.508,-1.7526 0.5334,-0.8128 1.3716,-1.5494 0.8636,-0.7366 1.8542,-1.5494 1.1938,-0.9652 2.032,-1.6764 0.8636,-0.7112 1.2954,-1.3716 0.4572,-0.6858 0.4572,-1.4732 0,-0.889 -0.508,-1.4478 -0.508,-0.5588 -1.4732,-0.5588 z m -4.572,17.907 q 0,-1.1938 0.8128,-1.9304 0.8128,-0.762 2.032,-0.762 0.9652,0 1.4732,0.4318 0.5334,0.4318 0.5334,1.2954 0,0.6858 -0.381,1.2954 -0.381,0.5842 -1.0414,0.9652 -0.635,0.381 -1.4478,0.381 -0.9652,0 -1.4732,-0.4318 -0.508,-0.4318 -0.508,-1.2446 z"
           id="path12" />
      </g>
      <rect
         style="fill:#ff5f4b;fill-opacity:1;stroke-width:1.24982;stroke-linecap:round;paint-order:markers stroke fill"
         id="rect17"
         width="64.201172"
         height="2.0974576"
         x="31.620718"
         y="135.56412" />
      <text
         xml:space="preserve"
         style="font-style:normal;font-variant:normal;font-weight:500;font-stretch:normal;font-size:14.1111px;line-height:1;font-family:Poppins;-inkscape-font-specification:'Poppins Medium';text-align:start;letter-spacing:-0.529167px;writing-mode:lr-tb;direction:ltr;text-anchor:start;fill:#ff5f4b;fill-opacity:1;stroke-width:1.00012;stroke-linecap:round;paint-order:markers stroke fill"
         x="31.000521"
         y="127.95801"
         id="text17"><tspan
           sodipodi:role="line"
           id="tspan17"
           style="font-style:normal;font-variant:normal;font-weight:500;font-stretch:normal;font-size:14.1111px;font-family:Poppins;-inkscape-font-specification:'Poppins Medium';stroke-width:1.00012"
           x="31.000521"
           y="127.95801">RENTER READINESS CALCULATOR</tspan></text>
    </g>
  </g>
  <script
     id="mesh_polyfill"
     type="text/javascript">
!function(){const t=&quot;http://www.w3.org/2000/svg&quot;,e=&quot;http://www.w3.org/1999/xlink&quot;,s=&quot;http://www.w3.org/1999/xhtml&quot;,r=2;if(document.createElementNS(t,&quot;meshgradient&quot;).x)return;const n=(t,e,s,r)=&gt;{let n=new x(.5*(e.x+s.x),.5*(e.y+s.y)),o=new x(.5*(t.x+e.x),.5*(t.y+e.y)),i=new x(.5*(s.x+r.x),.5*(s.y+r.y)),a=new x(.5*(n.x+o.x),.5*(n.y+o.y)),h=new x(.5*(n.x+i.x),.5*(n.y+i.y)),l=new x(.5*(a.x+h.x),.5*(a.y+h.y));return[[t,o,a,l],[l,h,i,r]]},o=t=&gt;{let e=t[0].distSquared(t[1]),s=t[2].distSquared(t[3]),r=.25*t[0].distSquared(t[2]),n=.25*t[1].distSquared(t[3]),o=e&gt;s?e:s,i=r&gt;n?r:n;return 18*(o&gt;i?o:i)},i=(t,e)=&gt;Math.sqrt(t.distSquared(e)),a=(t,e)=&gt;t.scale(2/3).add(e.scale(1/3)),h=t=&gt;{let e,s,r,n,o,i,a,h=new g;return t.match(/(\w+\(\s*[^)]+\))+/g).forEach(t=&gt;{let l=t.match(/[\w.-]+/g),d=l.shift();switch(d){case&quot;translate&quot;:2===l.length?e=new g(1,0,0,1,l[0],l[1]):(console.error(&quot;mesh.js: translate does not have 2 arguments!&quot;),e=new g(1,0,0,1,0,0)),h=h.append(e);break;case&quot;scale&quot;:1===l.length?s=new g(l[0],0,0,l[0],0,0):2===l.length?s=new g(l[0],0,0,l[1],0,0):(console.error(&quot;mesh.js: scale does not have 1 or 2 arguments!&quot;),s=new g(1,0,0,1,0,0)),h=h.append(s);break;case&quot;rotate&quot;:if(3===l.length&amp;&amp;(e=new g(1,0,0,1,l[1],l[2]),h=h.append(e)),l[0]){r=l[0]*Math.PI/180;let t=Math.cos(r),e=Math.sin(r);Math.abs(t)&lt;1e-16&amp;&amp;(t=0),Math.abs(e)&lt;1e-16&amp;&amp;(e=0),a=new g(t,e,-e,t,0,0),h=h.append(a)}else console.error(&quot;math.js: No argument to rotate transform!&quot;);3===l.length&amp;&amp;(e=new g(1,0,0,1,-l[1],-l[2]),h=h.append(e));break;case&quot;skewX&quot;:l[0]?(r=l[0]*Math.PI/180,n=Math.tan(r),o=new g(1,0,n,1,0,0),h=h.append(o)):console.error(&quot;math.js: No argument to skewX transform!&quot;);break;case&quot;skewY&quot;:l[0]?(r=l[0]*Math.PI/180,n=Math.tan(r),i=new g(1,n,0,1,0,0),h=h.append(i)):console.error(&quot;math.js: No argument to skewY transform!&quot;);break;case&quot;matrix&quot;:6===l.length?h=h.append(new g(...l)):console.error(&quot;math.js: Incorrect number of arguments for matrix!&quot;);break;default:console.error(&quot;mesh.js: Unhandled transform type: &quot;+d)}}),h},l=t=&gt;{let e=[],s=t.split(/[ ,]+/);for(let t=0,r=s.length-1;t&lt;r;t+=2)e.push(new x(parseFloat(s[t]),parseFloat(s[t+1])));return e},d=(t,e)=&gt;{for(let s in e)t.setAttribute(s,e[s])},c=(t,e,s,r,n)=&gt;{let o,i,a=[0,0,0,0];for(let h=0;h&lt;3;++h)e[h]&lt;t[h]&amp;&amp;e[h]&lt;s[h]||t[h]&lt;e[h]&amp;&amp;s[h]&lt;e[h]?a[h]=0:(a[h]=.5*((e[h]-t[h])/r+(s[h]-e[h])/n),o=Math.abs(3*(e[h]-t[h])/r),i=Math.abs(3*(s[h]-e[h])/n),a[h]&gt;o?a[h]=o:a[h]&gt;i&amp;&amp;(a[h]=i));return a},u=[[1,0,0,0,0,0,0,0,0,0,0,0,0,0,0,0],[0,0,0,0,1,0,0,0,0,0,0,0,0,0,0,0],[-3,3,0,0,-2,-1,0,0,0,0,0,0,0,0,0,0],[2,-2,0,0,1,1,0,0,0,0,0,0,0,0,0,0],[0,0,0,0,0,0,0,0,1,0,0,0,0,0,0,0],[0,0,0,0,0,0,0,0,0,0,0,0,1,0,0,0],[0,0,0,0,0,0,0,0,-3,3,0,0,-2,-1,0,0],[0,0,0,0,0,0,0,0,2,-2,0,0,1,1,0,0],[-3,0,3,0,0,0,0,0,-2,0,-1,0,0,0,0,0],[0,0,0,0,-3,0,3,0,0,0,0,0,-2,0,-1,0],[9,-9,-9,9,6,3,-6,-3,6,-6,3,-3,4,2,2,1],[-6,6,6,-6,-3,-3,3,3,-4,4,-2,2,-2,-2,-1,-1],[2,0,-2,0,0,0,0,0,1,0,1,0,0,0,0,0],[0,0,0,0,2,0,-2,0,0,0,0,0,1,0,1,0],[-6,6,6,-6,-4,-2,4,2,-3,3,-3,3,-2,-1,-2,-1],[4,-4,-4,4,2,2,-2,-2,2,-2,2,-2,1,1,1,1]],f=t=&gt;{let e=[];for(let s=0;s&lt;16;++s){e[s]=0;for(let r=0;r&lt;16;++r)e[s]+=u[s][r]*t[r]}return e},p=(t,e,s)=&gt;{const r=e*e,n=s*s,o=e*e*e,i=s*s*s;return t[0]+t[1]*e+t[2]*r+t[3]*o+t[4]*s+t[5]*s*e+t[6]*s*r+t[7]*s*o+t[8]*n+t[9]*n*e+t[10]*n*r+t[11]*n*o+t[12]*i+t[13]*i*e+t[14]*i*r+t[15]*i*o},y=t=&gt;{let e=[],s=[],r=[];for(let s=0;s&lt;4;++s)e[s]=[],e[s][0]=n(t[0][s],t[1][s],t[2][s],t[3][s]),e[s][1]=[],e[s][1].push(...n(...e[s][0][0])),e[s][1].push(...n(...e[s][0][1])),e[s][2]=[],e[s][2].push(...n(...e[s][1][0])),e[s][2].push(...n(...e[s][1][1])),e[s][2].push(...n(...e[s][1][2])),e[s][2].push(...n(...e[s][1][3]));for(let t=0;t&lt;8;++t){s[t]=[];for(let r=0;r&lt;4;++r)s[t][r]=[],s[t][r][0]=n(e[0][2][t][r],e[1][2][t][r],e[2][2][t][r],e[3][2][t][r]),s[t][r][1]=[],s[t][r][1].push(...n(...s[t][r][0][0])),s[t][r][1].push(...n(...s[t][r][0][1])),s[t][r][2]=[],s[t][r][2].push(...n(...s[t][r][1][0])),s[t][r][2].push(...n(...s[t][r][1][1])),s[t][r][2].push(...n(...s[t][r][1][2])),s[t][r][2].push(...n(...s[t][r][1][3]))}for(let t=0;t&lt;8;++t){r[t]=[];for(let e=0;e&lt;8;++e)r[t][e]=[],r[t][e][0]=s[t][0][2][e],r[t][e][1]=s[t][1][2][e],r[t][e][2]=s[t][2][2][e],r[t][e][3]=s[t][3][2][e]}return r};class x{constructor(t,e){this.x=t||0,this.y=e||0}toString(){return`(x=${this.x}, y=${this.y})`}clone(){return new x(this.x,this.y)}add(t){return new x(this.x+t.x,this.y+t.y)}scale(t){return void 0===t.x?new x(this.x*t,this.y*t):new x(this.x*t.x,this.y*t.y)}distSquared(t){let e=this.x-t.x,s=this.y-t.y;return e*e+s*s}transform(t){let e=this.x*t.a+this.y*t.c+t.e,s=this.x*t.b+this.y*t.d+t.f;return new x(e,s)}}class g{constructor(t,e,s,r,n,o){void 0===t?(this.a=1,this.b=0,this.c=0,this.d=1,this.e=0,this.f=0):(this.a=t,this.b=e,this.c=s,this.d=r,this.e=n,this.f=o)}toString(){return`affine: ${this.a} ${this.c} ${this.e} \n       ${this.b} ${this.d} ${this.f}`}append(t){t instanceof g||console.error(&quot;mesh.js: argument to Affine.append is not affine!&quot;);let e=this.a*t.a+this.c*t.b,s=this.b*t.a+this.d*t.b,r=this.a*t.c+this.c*t.d,n=this.b*t.c+this.d*t.d,o=this.a*t.e+this.c*t.f+this.e,i=this.b*t.e+this.d*t.f+this.f;return new g(e,s,r,n,o,i)}}class w{constructor(t,e){this.nodes=t,this.colors=e}paintCurve(t,e){if(o(this.nodes)&gt;r){const s=n(...this.nodes);let r=[[],[]],o=[[],[]];for(let t=0;t&lt;4;++t)r[0][t]=this.colors[0][t],r[1][t]=(this.colors[0][t]+this.colors[1][t])/2,o[0][t]=r[1][t],o[1][t]=this.colors[1][t];let i=new w(s[0],r),a=new w(s[1],o);i.paintCurve(t,e),a.paintCurve(t,e)}else{let s=Math.round(this.nodes[0].x);if(s&gt;=0&amp;&amp;s&lt;e){let r=4*(~~this.nodes[0].y*e+s);t[r]=Math.round(this.colors[0][0]),t[r+1]=Math.round(this.colors[0][1]),t[r+2]=Math.round(this.colors[0][2]),t[r+3]=Math.round(this.colors[0][3])}}}}class m{constructor(t,e){this.nodes=t,this.colors=e}split(){let t=[[],[],[],[]],e=[[],[],[],[]],s=[[[],[]],[[],[]]],r=[[[],[]],[[],[]]];for(let s=0;s&lt;4;++s){const r=n(this.nodes[0][s],this.nodes[1][s],this.nodes[2][s],this.nodes[3][s]);t[0][s]=r[0][0],t[1][s]=r[0][1],t[2][s]=r[0][2],t[3][s]=r[0][3],e[0][s]=r[1][0],e[1][s]=r[1][1],e[2][s]=r[1][2],e[3][s]=r[1][3]}for(let t=0;t&lt;4;++t)s[0][0][t]=this.colors[0][0][t],s[0][1][t]=this.colors[0][1][t],s[1][0][t]=(this.colors[0][0][t]+this.colors[1][0][t])/2,s[1][1][t]=(this.colors[0][1][t]+this.colors[1][1][t])/2,r[0][0][t]=s[1][0][t],r[0][1][t]=s[1][1][t],r[1][0][t]=this.colors[1][0][t],r[1][1][t]=this.colors[1][1][t];return[new m(t,s),new m(e,r)]}paint(t,e){let s,n=!1;for(let t=0;t&lt;4;++t)if((s=o([this.nodes[0][t],this.nodes[1][t],this.nodes[2][t],this.nodes[3][t]]))&gt;r){n=!0;break}if(n){let s=this.split();s[0].paint(t,e),s[1].paint(t,e)}else{new w([...this.nodes[0]],[...this.colors[0]]).paintCurve(t,e)}}}class b{constructor(t){this.readMesh(t),this.type=t.getAttribute(&quot;type&quot;)||&quot;bilinear&quot;}readMesh(t){let e=[[]],s=[[]],r=Number(t.getAttribute(&quot;x&quot;)),n=Number(t.getAttribute(&quot;y&quot;));e[0][0]=new x(r,n);let o=t.children;for(let t=0,r=o.length;t&lt;r;++t){e[3*t+1]=[],e[3*t+2]=[],e[3*t+3]=[],s[t+1]=[];let r=o[t].children;for(let n=0,o=r.length;n&lt;o;++n){let o=r[n].children;for(let r=0,i=o.length;r&lt;i;++r){let i=r;0!==t&amp;&amp;++i;let h,d=o[r].getAttribute(&quot;path&quot;),c=&quot;l&quot;;null!=d&amp;&amp;(c=(h=d.match(/\s*([lLcC])\s*(.*)/))[1]);let u=l(h[2]);switch(c){case&quot;l&quot;:0===i?(e[3*t][3*n+3]=u[0].add(e[3*t][3*n]),e[3*t][3*n+1]=a(e[3*t][3*n],e[3*t][3*n+3]),e[3*t][3*n+2]=a(e[3*t][3*n+3],e[3*t][3*n])):1===i?(e[3*t+3][3*n+3]=u[0].add(e[3*t][3*n+3]),e[3*t+1][3*n+3]=a(e[3*t][3*n+3],e[3*t+3][3*n+3]),e[3*t+2][3*n+3]=a(e[3*t+3][3*n+3],e[3*t][3*n+3])):2===i?(0===n&amp;&amp;(e[3*t+3][3*n+0]=u[0].add(e[3*t+3][3*n+3])),e[3*t+3][3*n+1]=a(e[3*t+3][3*n],e[3*t+3][3*n+3]),e[3*t+3][3*n+2]=a(e[3*t+3][3*n+3],e[3*t+3][3*n])):(e[3*t+1][3*n]=a(e[3*t][3*n],e[3*t+3][3*n]),e[3*t+2][3*n]=a(e[3*t+3][3*n],e[3*t][3*n]));break;case&quot;L&quot;:0===i?(e[3*t][3*n+3]=u[0],e[3*t][3*n+1]=a(e[3*t][3*n],e[3*t][3*n+3]),e[3*t][3*n+2]=a(e[3*t][3*n+3],e[3*t][3*n])):1===i?(e[3*t+3][3*n+3]=u[0],e[3*t+1][3*n+3]=a(e[3*t][3*n+3],e[3*t+3][3*n+3]),e[3*t+2][3*n+3]=a(e[3*t+3][3*n+3],e[3*t][3*n+3])):2===i?(0===n&amp;&amp;(e[3*t+3][3*n+0]=u[0]),e[3*t+3][3*n+1]=a(e[3*t+3][3*n],e[3*t+3][3*n+3]),e[3*t+3][3*n+2]=a(e[3*t+3][3*n+3],e[3*t+3][3*n])):(e[3*t+1][3*n]=a(e[3*t][3*n],e[3*t+3][3*n]),e[3*t+2][3*n]=a(e[3*t+3][3*n],e[3*t][3*n]));break;case&quot;c&quot;:0===i?(e[3*t][3*n+1]=u[0].add(e[3*t][3*n]),e[3*t][3*n+2]=u[1].add(e[3*t][3*n]),e[3*t][3*n+3]=u[2].add(e[3*t][3*n])):1===i?(e[3*t+1][3*n+3]=u[0].add(e[3*t][3*n+3]),e[3*t+2][3*n+3]=u[1].add(e[3*t][3*n+3]),e[3*t+3][3*n+3]=u[2].add(e[3*t][3*n+3])):2===i?(e[3*t+3][3*n+2]=u[0].add(e[3*t+3][3*n+3]),e[3*t+3][3*n+1]=u[1].add(e[3*t+3][3*n+3]),0===n&amp;&amp;(e[3*t+3][3*n+0]=u[2].add(e[3*t+3][3*n+3]))):(e[3*t+2][3*n]=u[0].add(e[3*t+3][3*n]),e[3*t+1][3*n]=u[1].add(e[3*t+3][3*n]));break;case&quot;C&quot;:0===i?(e[3*t][3*n+1]=u[0],e[3*t][3*n+2]=u[1],e[3*t][3*n+3]=u[2]):1===i?(e[3*t+1][3*n+3]=u[0],e[3*t+2][3*n+3]=u[1],e[3*t+3][3*n+3]=u[2]):2===i?(e[3*t+3][3*n+2]=u[0],e[3*t+3][3*n+1]=u[1],0===n&amp;&amp;(e[3*t+3][3*n+0]=u[2])):(e[3*t+2][3*n]=u[0],e[3*t+1][3*n]=u[1]);break;default:console.error(&quot;mesh.js: &quot;+c+&quot; invalid path type.&quot;)}if(0===t&amp;&amp;0===n||r&gt;0){let e=window.getComputedStyle(o[r]).stopColor.match(/^rgb\s*\(\s*(\d+)\s*,\s*(\d+)\s*,\s*(\d+)\s*\)$/i),a=window.getComputedStyle(o[r]).stopOpacity,h=255;a&amp;&amp;(h=Math.floor(255*a)),e&amp;&amp;(0===i?(s[t][n]=[],s[t][n][0]=Math.floor(e[1]),s[t][n][1]=Math.floor(e[2]),s[t][n][2]=Math.floor(e[3]),s[t][n][3]=h):1===i?(s[t][n+1]=[],s[t][n+1][0]=Math.floor(e[1]),s[t][n+1][1]=Math.floor(e[2]),s[t][n+1][2]=Math.floor(e[3]),s[t][n+1][3]=h):2===i?(s[t+1][n+1]=[],s[t+1][n+1][0]=Math.floor(e[1]),s[t+1][n+1][1]=Math.floor(e[2]),s[t+1][n+1][2]=Math.floor(e[3]),s[t+1][n+1][3]=h):3===i&amp;&amp;(s[t+1][n]=[],s[t+1][n][0]=Math.floor(e[1]),s[t+1][n][1]=Math.floor(e[2]),s[t+1][n][2]=Math.floor(e[3]),s[t+1][n][3]=h))}}e[3*t+1][3*n+1]=new x,e[3*t+1][3*n+2]=new x,e[3*t+2][3*n+1]=new x,e[3*t+2][3*n+2]=new x,e[3*t+1][3*n+1].x=(-4*e[3*t][3*n].x+6*(e[3*t][3*n+1].x+e[3*t+1][3*n].x)+-2*(e[3*t][3*n+3].x+e[3*t+3][3*n].x)+3*(e[3*t+3][3*n+1].x+e[3*t+1][3*n+3].x)+-1*e[3*t+3][3*n+3].x)/9,e[3*t+1][3*n+2].x=(-4*e[3*t][3*n+3].x+6*(e[3*t][3*n+2].x+e[3*t+1][3*n+3].x)+-2*(e[3*t][3*n].x+e[3*t+3][3*n+3].x)+3*(e[3*t+3][3*n+2].x+e[3*t+1][3*n].x)+-1*e[3*t+3][3*n].x)/9,e[3*t+2][3*n+1].x=(-4*e[3*t+3][3*n].x+6*(e[3*t+3][3*n+1].x+e[3*t+2][3*n].x)+-2*(e[3*t+3][3*n+3].x+e[3*t][3*n].x)+3*(e[3*t][3*n+1].x+e[3*t+2][3*n+3].x)+-1*e[3*t][3*n+3].x)/9,e[3*t+2][3*n+2].x=(-4*e[3*t+3][3*n+3].x+6*(e[3*t+3][3*n+2].x+e[3*t+2][3*n+3].x)+-2*(e[3*t+3][3*n].x+e[3*t][3*n+3].x)+3*(e[3*t][3*n+2].x+e[3*t+2][3*n].x)+-1*e[3*t][3*n].x)/9,e[3*t+1][3*n+1].y=(-4*e[3*t][3*n].y+6*(e[3*t][3*n+1].y+e[3*t+1][3*n].y)+-2*(e[3*t][3*n+3].y+e[3*t+3][3*n].y)+3*(e[3*t+3][3*n+1].y+e[3*t+1][3*n+3].y)+-1*e[3*t+3][3*n+3].y)/9,e[3*t+1][3*n+2].y=(-4*e[3*t][3*n+3].y+6*(e[3*t][3*n+2].y+e[3*t+1][3*n+3].y)+-2*(e[3*t][3*n].y+e[3*t+3][3*n+3].y)+3*(e[3*t+3][3*n+2].y+e[3*t+1][3*n].y)+-1*e[3*t+3][3*n].y)/9,e[3*t+2][3*n+1].y=(-4*e[3*t+3][3*n].y+6*(e[3*t+3][3*n+1].y+e[3*t+2][3*n].y)+-2*(e[3*t+3][3*n+3].y+e[3*t][3*n].y)+3*(e[3*t][3*n+1].y+e[3*t+2][3*n+3].y)+-1*e[3*t][3*n+3].y)/9,e[3*t+2][3*n+2].y=(-4*e[3*t+3][3*n+3].y+6*(e[3*t+3][3*n+2].y+e[3*t+2][3*n+3].y)+-2*(e[3*t+3][3*n].y+e[3*t][3*n+3].y)+3*(e[3*t][3*n+2].y+e[3*t+2][3*n].y)+-1*e[3*t][3*n].y)/9}}this.nodes=e,this.colors=s}paintMesh(t,e){let s=(this.nodes.length-1)/3,r=(this.nodes[0].length-1)/3;if(&quot;bilinear&quot;===this.type||s&lt;2||r&lt;2){let n;for(let o=0;o&lt;s;++o)for(let s=0;s&lt;r;++s){let r=[];for(let t=3*o,e=3*o+4;t&lt;e;++t)r.push(this.nodes[t].slice(3*s,3*s+4));let i=[];i.push(this.colors[o].slice(s,s+2)),i.push(this.colors[o+1].slice(s,s+2)),(n=new m(r,i)).paint(t,e)}}else{let n,o,a,h,l,d,u;const x=s,g=r;s++,r++;let w=new Array(s);for(let t=0;t&lt;s;++t){w[t]=new Array(r);for(let e=0;e&lt;r;++e)w[t][e]=[],w[t][e][0]=this.nodes[3*t][3*e],w[t][e][1]=this.colors[t][e]}for(let t=0;t&lt;s;++t)for(let e=0;e&lt;r;++e)0!==t&amp;&amp;t!==x&amp;&amp;(n=i(w[t-1][e][0],w[t][e][0]),o=i(w[t+1][e][0],w[t][e][0]),w[t][e][2]=c(w[t-1][e][1],w[t][e][1],w[t+1][e][1],n,o)),0!==e&amp;&amp;e!==g&amp;&amp;(n=i(w[t][e-1][0],w[t][e][0]),o=i(w[t][e+1][0],w[t][e][0]),w[t][e][3]=c(w[t][e-1][1],w[t][e][1],w[t][e+1][1],n,o));for(let t=0;t&lt;r;++t){w[0][t][2]=[],w[x][t][2]=[];for(let e=0;e&lt;4;++e)n=i(w[1][t][0],w[0][t][0]),o=i(w[x][t][0],w[x-1][t][0]),w[0][t][2][e]=n&gt;0?2*(w[1][t][1][e]-w[0][t][1][e])/n-w[1][t][2][e]:0,w[x][t][2][e]=o&gt;0?2*(w[x][t][1][e]-w[x-1][t][1][e])/o-w[x-1][t][2][e]:0}for(let t=0;t&lt;s;++t){w[t][0][3]=[],w[t][g][3]=[];for(let e=0;e&lt;4;++e)n=i(w[t][1][0],w[t][0][0]),o=i(w[t][g][0],w[t][g-1][0]),w[t][0][3][e]=n&gt;0?2*(w[t][1][1][e]-w[t][0][1][e])/n-w[t][1][3][e]:0,w[t][g][3][e]=o&gt;0?2*(w[t][g][1][e]-w[t][g-1][1][e])/o-w[t][g-1][3][e]:0}for(let s=0;s&lt;x;++s)for(let r=0;r&lt;g;++r){let n=i(w[s][r][0],w[s+1][r][0]),o=i(w[s][r+1][0],w[s+1][r+1][0]),c=i(w[s][r][0],w[s][r+1][0]),x=i(w[s+1][r][0],w[s+1][r+1][0]),g=[[],[],[],[]];for(let t=0;t&lt;4;++t){(d=[])[0]=w[s][r][1][t],d[1]=w[s+1][r][1][t],d[2]=w[s][r+1][1][t],d[3]=w[s+1][r+1][1][t],d[4]=w[s][r][2][t]*n,d[5]=w[s+1][r][2][t]*n,d[6]=w[s][r+1][2][t]*o,d[7]=w[s+1][r+1][2][t]*o,d[8]=w[s][r][3][t]*c,d[9]=w[s+1][r][3][t]*x,d[10]=w[s][r+1][3][t]*c,d[11]=w[s+1][r+1][3][t]*x,d[12]=0,d[13]=0,d[14]=0,d[15]=0,u=f(d);for(let e=0;e&lt;9;++e){g[t][e]=[];for(let s=0;s&lt;9;++s)g[t][e][s]=p(u,e/8,s/8),g[t][e][s]&gt;255?g[t][e][s]=255:g[t][e][s]&lt;0&amp;&amp;(g[t][e][s]=0)}}h=[];for(let t=3*s,e=3*s+4;t&lt;e;++t)h.push(this.nodes[t].slice(3*r,3*r+4));l=y(h);for(let s=0;s&lt;8;++s)for(let r=0;r&lt;8;++r)(a=new m(l[s][r],[[[g[0][s][r],g[1][s][r],g[2][s][r],g[3][s][r]],[g[0][s][r+1],g[1][s][r+1],g[2][s][r+1],g[3][s][r+1]]],[[g[0][s+1][r],g[1][s+1][r],g[2][s+1][r],g[3][s+1][r]],[g[0][s+1][r+1],g[1][s+1][r+1],g[2][s+1][r+1],g[3][s+1][r+1]]]])).paint(t,e)}}}transform(t){if(t instanceof x)for(let e=0,s=this.nodes.length;e&lt;s;++e)for(let s=0,r=this.nodes[0].length;s&lt;r;++s)this.nodes[e][s]=this.nodes[e][s].add(t);else if(t instanceof g)for(let e=0,s=this.nodes.length;e&lt;s;++e)for(let s=0,r=this.nodes[0].length;s&lt;r;++s)this.nodes[e][s]=this.nodes[e][s].transform(t)}scale(t){for(let e=0,s=this.nodes.length;e&lt;s;++e)for(let s=0,r=this.nodes[0].length;s&lt;r;++s)this.nodes[e][s]=this.nodes[e][s].scale(t)}}document.querySelectorAll(&quot;rect,circle,ellipse,path,text&quot;).forEach((r,n)=&gt;{let o=r.getAttribute(&quot;id&quot;);o||(o=&quot;patchjs_shape&quot;+n,r.setAttribute(&quot;id&quot;,o));const i=r.style.fill.match(/^url\(\s*&quot;?\s*#([^\s&quot;]+)&quot;?\s*\)/),a=r.style.stroke.match(/^url\(\s*&quot;?\s*#([^\s&quot;]+)&quot;?\s*\)/);if(i&amp;&amp;i[1]){const a=document.getElementById(i[1]);if(a&amp;&amp;&quot;meshgradient&quot;===a.nodeName){const i=r.getBBox();let l=document.createElementNS(s,&quot;canvas&quot;);d(l,{width:i.width,height:i.height});const c=l.getContext(&quot;2d&quot;);let u=c.createImageData(i.width,i.height);const f=new b(a);&quot;objectBoundingBox&quot;===a.getAttribute(&quot;gradientUnits&quot;)&amp;&amp;f.scale(new x(i.width,i.height));const p=a.getAttribute(&quot;gradientTransform&quot;);null!=p&amp;&amp;f.transform(h(p)),&quot;userSpaceOnUse&quot;===a.getAttribute(&quot;gradientUnits&quot;)&amp;&amp;f.transform(new x(-i.x,-i.y)),f.paintMesh(u.data,l.width),c.putImageData(u,0,0);const y=document.createElementNS(t,&quot;image&quot;);d(y,{width:i.width,height:i.height,x:i.x,y:i.y});let g=l.toDataURL();y.setAttributeNS(e,&quot;xlink:href&quot;,g),r.parentNode.insertBefore(y,r),r.style.fill=&quot;none&quot;;const w=document.createElementNS(t,&quot;use&quot;);w.setAttributeNS(e,&quot;xlink:href&quot;,&quot;#&quot;+o);const m=&quot;patchjs_clip&quot;+n,M=document.createElementNS(t,&quot;clipPath&quot;);M.setAttribute(&quot;id&quot;,m),M.appendChild(w),r.parentElement.insertBefore(M,r),y.setAttribute(&quot;clip-path&quot;,&quot;url(#&quot;+m+&quot;)&quot;),u=null,l=null,g=null}}if(a&amp;&amp;a[1]){const o=document.getElementById(a[1]);if(o&amp;&amp;&quot;meshgradient&quot;===o.nodeName){const i=parseFloat(r.style.strokeWidth.slice(0,-2))*(parseFloat(r.style.strokeMiterlimit)||parseFloat(r.getAttribute(&quot;stroke-miterlimit&quot;))||1),a=r.getBBox(),l=Math.trunc(a.width+i),c=Math.trunc(a.height+i),u=Math.trunc(a.x-i/2),f=Math.trunc(a.y-i/2);let p=document.createElementNS(s,&quot;canvas&quot;);d(p,{width:l,height:c});const y=p.getContext(&quot;2d&quot;);let g=y.createImageData(l,c);const w=new b(o);&quot;objectBoundingBox&quot;===o.getAttribute(&quot;gradientUnits&quot;)&amp;&amp;w.scale(new x(l,c));const m=o.getAttribute(&quot;gradientTransform&quot;);null!=m&amp;&amp;w.transform(h(m)),&quot;userSpaceOnUse&quot;===o.getAttribute(&quot;gradientUnits&quot;)&amp;&amp;w.transform(new x(-u,-f)),w.paintMesh(g.data,p.width),y.putImageData(g,0,0);const M=document.createElementNS(t,&quot;image&quot;);d(M,{width:l,height:c,x:0,y:0});let S=p.toDataURL();M.setAttributeNS(e,&quot;xlink:href&quot;,S);const k=&quot;pattern_clip&quot;+n,A=document.createElementNS(t,&quot;pattern&quot;);d(A,{id:k,patternUnits:&quot;userSpaceOnUse&quot;,width:l,height:c,x:u,y:f}),A.appendChild(M),o.parentNode.appendChild(A),r.style.stroke=&quot;url(#&quot;+k+&quot;)&quot;,g=null,p=null,S=null}}})}();
</script>
</svg>
